<mxfile host="app.diagrams.net" modified="2024-05-01T16:41:08.439Z" agent="Mozilla/5.0 (Windows NT 10.0; Win64; x64) AppleWebKit/537.36 (KHTML, like Gecko) Chrome/124.0.0.0 Safari/537.36" version="24.3.1" etag="GNa6yufVsku5CL4z6NZe" type="github">
  <diagram name="페이지-1" id="QS_ABQ4w8iAoPhb066rH">
    <mxGraphModel>
      <root>
        <mxCell id="0" />
        <mxCell id="1" parent="0" />
      </root>
    </mxGraphModel>
  </diagram>
</mxfile>
